<svg xmlns="http://www.w3.org/2000/svg" xml:space="preserve" height="147" data-id="lg_8Gg3GwVeztU4JLLDsT" data-version="1" viewBox="700 0 600 147"><g data-padding="20"><g transform="translate(10 2.62)scale(.96435)"><path fill="#471f71" d="M818.237 3.434a6.716 6.716 0 0 1 12.59 2.508 6.716 6.716 0 0 0 10.89 4.504c5.115-4.125 12.507.825 10.66 7.128a6.716 6.716 0 0 0 8.331 8.333 6.716 6.716 0 0 1 7.128 10.66 6.716 6.716 0 0 0 4.505 10.89 6.716 6.716 0 0 1 2.508 12.59 6.716 6.716 0 0 0 0 11.78 6.716 6.716 0 0 1-2.508 12.59 6.716 6.716 0 0 0-4.504 10.89c4.125 5.114-.825 12.506-7.128 10.658a6.716 6.716 0 0 0-8.333 8.332 6.716 6.716 0 0 1-10.659 7.128 6.716 6.716 0 0 0-10.89 4.505 6.716 6.716 0 0 1-12.59 2.508 6.716 6.716 0 0 0-11.78 0 6.716 6.716 0 0 1-12.59-2.508 6.716 6.716 0 0 0-10.89-4.504 6.716 6.716 0 0 1-10.659-7.128 6.716 6.716 0 0 0-8.332-8.333 6.716 6.716 0 0 1-7.129-10.659 6.716 6.716 0 0 0-4.505-10.89 6.716 6.716 0 0 1-2.508-12.59 6.716 6.716 0 0 0 0-11.78 6.716 6.716 0 0 1 2.51-12.59 6.716 6.716 0 0 0 4.504-10.89c-4.125-5.115.825-12.507 7.128-10.659a6.716 6.716 0 0 0 8.332-8.332 6.716 6.716 0 0 1 10.66-7.129 6.716 6.716 0 0 0 10.89-4.504 6.716 6.716 0 0 1 12.59-2.508 6.716 6.716 0 0 0 11.78 0"/><path fill="#f3f2f7" d="M782.475 52.411c2.175 0 4.495 2.9 4.495 7.105s-2.465 7.105-4.495 7.105c-2.175 0-4.495-2.9-4.495-7.105s2.32-7.105 4.495-7.105m0-3.915c-4.64 0-8.41 4.93-8.41 11.02s3.77 11.02 8.41 11.02 8.41-4.93 8.41-11.02-3.77-11.02-8.41-11.02m55.39 3.915c2.174 0 4.494 2.9 4.494 7.105s-2.465 7.105-4.495 7.105c-2.175 0-4.495-2.9-4.495-7.105s2.465-7.105 4.495-7.105m0-3.915c-4.64 0-8.41 4.93-8.41 11.02s3.77 11.02 8.41 11.02 8.555-5.075 8.555-11.165-3.77-10.875-8.555-10.875m-39.005-11.31c2.175 0 4.495 2.9 4.495 7.105s-2.465 7.105-4.495 7.105-4.495-2.9-4.495-7.105 2.32-7.105 4.495-7.105m0-3.915c-4.64 0-8.41 4.93-8.41 11.02s3.77 11.02 8.41 11.02 8.41-4.93 8.41-11.02-3.77-11.02-8.41-11.02m22.621 3.915c2.175 0 4.495 2.9 4.495 7.105s-2.465 7.105-4.495 7.105-4.495-2.9-4.495-7.105 2.32-7.105 4.495-7.105m0-3.915c-4.64 0-8.41 4.93-8.41 11.02s3.77 11.02 8.41 11.02 8.41-4.93 8.41-11.02-3.77-11.02-8.41-11.02m-11.31 26.535c3.77 0 7.25 2.03 8.844 5.51a21.17 21.17 0 0 0 9.425 9.425 10 10 0 0 1 5.51 8.845c0 5.51-4.495 10.005-10.005 10.005-1.595 0-3.19-.435-4.64-1.16-2.755-1.45-6.09-2.175-9.28-2.175-3.335 0-6.525.725-9.28 2.175a10.005 10.005 0 0 1-14.645-8.845c0-3.77 2.03-7.25 5.51-8.845a21.17 21.17 0 0 0 9.425-9.425c1.885-3.335 5.365-5.51 9.135-5.51m0-3.915c-5.365 0-10.15 3.045-12.325 7.685-1.74 3.335-4.35 6.09-7.685 7.685a13.92 13.92 0 0 0 6.235 26.39c2.32 0 4.495-.58 6.38-1.595 2.32-1.16 4.93-1.74 7.54-1.74s5.22.58 7.54 1.74a13.4 13.4 0 0 0 6.38 1.595 13.92 13.92 0 0 0 6.235-26.39c-3.335-1.74-6.09-4.35-7.685-7.685-2.465-4.495-7.25-7.685-12.615-7.685"/><rect width="425.691" height="131.08" x="556.606" y="-65.585" fill="none" rx="0" ry="0" transform="matrix(.97 0 0 .97 354.05 83.56)"/><path fill="#471f71" d="M916.787 118.376h-19.01v-96.68h25.55q8.02 0 12.71 3.57 4.7 3.57 6.73 10.16 2.04 6.59 2.04 15.71 0 8.79-1.71 15.3-1.7 6.51-6.07 10.08-4.36 3.57-12.38 3.57h-7.86Zm0-79.05v23.4h1.1q5.38 0 6.59-3.02t1.21-8.9q0-5.49-1.18-8.49-1.18-2.99-5.58-2.99Zm50.27 79.05h-18.78l9.34-96.68h32.79l9.17 96.68h-18.29l-1.37-15.6h-11.65Zm6.27-80.2-3.68 49.16h8.79l-4.23-49.16Zm63.34 80.2h-23.57l-10.38-96.68h18.89l5.33 61.03 5.44-61.03h18.02l5.16 61.03 5.17-61.03h19.11l-10.54 96.68h-23.19l-4.83-46.53Zm67.95 0h-19.01v-96.68h25.55q8.02 0 12.71 3.57 4.7 3.57 6.73 10.16t2.03 15.71q0 8.79-1.7 15.3t-6.07 10.08-12.39 3.57h-7.85Zm0-79.05v23.4h1.1q5.38 0 6.59-3.02t1.21-8.9q0-5.49-1.18-8.49-1.18-2.99-5.58-2.99Zm73.33 79.05h-39.22v-96.68h19.34v80.2h19.88Zm21.64 0h-18.79l9.34-96.68h32.8l9.17 96.68h-18.29l-1.38-15.6h-11.64Zm6.26-80.2-3.68 49.16h8.79l-4.23-49.16Zm51.1 80.2h-18.9v-96.68h19.89l8.9 46.31v-46.31h18.67v96.68h-18.89l-9.67-48.34Z"/></g><path fill="transparent" stroke="transparent" d="M719.5 0h561v147h-561z"/></g></svg>